<?xml version="1.0" encoding="UTF-8"?><!DOCTYPE svg PUBLIC "-//W3C//DTD SVG 1.1//EN" "http://www.w3.org/Graphics/SVG/1.1/DTD/svg11.dtd"><svg xmlns="http://www.w3.org/2000/svg" xmlns:xlink="http://www.w3.org/1999/xlink"><symbol id="icon-arrow-up-right" viewBox="0 0 16 16"><path fill-opacity=".01" style="mix-blend-mode:multiply" d="M0 0h16v16H0z"/><path d="M5 3v1h6.295L3 12.295l.705.705L12 4.705V11h1V3H5z"/></symbol><symbol id="icon-chart-bar-target" viewBox="0 0 25 24"><path fill-opacity=".01" style="mix-blend-mode:multiply" d="M.5 0h24v24H.5z"/><path d="M23 12.75h-1.5v6H23v-6zM17 3.75h-1.5v6H17v-6z"/><path d="M3.5 1.5H2V21a1.5 1.5 0 001.5 1.5H23V21H3.5v-2.25H20v-6H3.5v-3H14v-6H3.5V1.5zm15 12.75v3h-15v-3h15zm-6-9v3h-9v-3h9z"/></symbol><symbol id="icon-chevron-down" viewBox="0 0 25 24"><path fill-opacity=".01" style="mix-blend-mode:multiply" d="M.5 0h24v24H.5z"/><path d="M12.5 16.5L5 9l1.05-1.05 6.45 6.45 6.45-6.45L20 9l-7.5 7.5z"/></symbol><symbol id="icon-customer-service" viewBox="0 0 16 16"><path fill-opacity=".01" style="mix-blend-mode:multiply" d="M0 0h16v16H0z"/><path d="M13 15h-1v-2.5A2.503 2.503 0 009.5 10h-3A2.503 2.503 0 004 12.5V15H3v-2.5A3.504 3.504 0 016.5 9h3a3.504 3.504 0 013.5 3.5V15zM11 3v2c0 .551-.449 1-1 1h-.5a.5.5 0 000 1h.5c1.103 0 2-.897 2-2V3h-1zM8 8C6.07 8 4.5 6.43 4.5 4.5S6.07 1 8 1c.994 0 1.945.425 2.609 1.166l-.745.667A2.504 2.504 0 008 2a2.503 2.503 0 00-2.5 2.5C5.5 5.878 6.621 7 8 7v1z"/></symbol><symbol id="icon-help" viewBox="0 0 25 24"><path fill-opacity=".01" style="mix-blend-mode:multiply" d="M.5 0h24v24H.5z"/><path d="M12.5 1.5a10.5 10.5 0 100 21 10.5 10.5 0 000-21zm0 19.5a9 9 0 110-18 9 9 0 010 18z"/><path d="M12.5 18.75a1.125 1.125 0 100-2.25 1.125 1.125 0 000 2.25zM13.25 6h-1.125A3.367 3.367 0 008.75 9.375v.375h1.5v-.375A1.875 1.875 0 0112.125 7.5h1.125a1.875 1.875 0 110 3.75h-1.5v3.375h1.5V12.75a3.375 3.375 0 000-6.75z"/></symbol><symbol id="icon-information-filled" viewBox="0 0 25 24"><path fill-opacity=".01" style="mix-blend-mode:multiply" d="M.5 0h24v24H.5z"/><path d="M12.5 1.5a10.5 10.5 0 100 21 10.5 10.5 0 000-21zm0 4.5a1.125 1.125 0 110 2.25 1.125 1.125 0 010-2.25zm3 12.094h-6v-1.688h2.156v-4.312H10.25v-1.688h3.094v6H15.5v1.688z"/></symbol><symbol id="icon-portfolio" viewBox="0 0 24 24"><path d="M21 7.5h-4.5v-3A1.5 1.5 0 0015 3H9a1.5 1.5 0 00-1.5 1.5v3H3A1.5 1.5 0 001.5 9v10.5A1.5 1.5 0 003 21h18a1.5 1.5 0 001.5-1.5V9A1.5 1.5 0 0021 7.5zm-12-3h6v3H9v-3zm-6 15V9h18v10.5H3z"/><path fill-rule="evenodd" clip-rule="evenodd" d="M18.368 14.25c1.641.004 3.348-.892 4.067-2.505l-1.37-.61c-.438.983-1.544 1.618-2.695 1.615H5.618c-1.144.003-2.24-.618-2.686-1.597l-1.365.622c.73 1.601 2.422 2.479 4.054 2.475"/><path fill-rule="evenodd" clip-rule="evenodd" d="M12.745 12v3h-1.5v-3h1.5z"/></symbol><symbol id="icon-renew" viewBox="0 0 25 24"><path fill-opacity=".01" style="mix-blend-mode:multiply" d="M.5 0h24v24H.5z"/><path d="M9.5 7.5H5.585A8.25 8.25 0 0120.75 12h1.5A9.75 9.75 0 005 5.76V3H3.5v6h6V7.5zM15.5 16.5h3.915A8.25 8.25 0 014.25 12h-1.5A9.75 9.75 0 0020 18.24V21h1.5v-6h-6v1.5z"/></symbol></svg>